# xmcd
#
# Track frame offsets:
#	150
#	15450
#	29922
#	42860
#	55358
#	70787
#	86411
#	101265
#	115038
#	128839
#	143174
#	157506
#	171502
#	186285
#	201335
#
# Disc length: 2838 seconds
#
# Revision: 0
# Processed by: cddbd v1.5.2PL0 Copyright (c) Steve Scherf et al.
# Submitted via: EasyCDDAExtractor 16.0.6.1
#
DISCID=c70b140f
DTITLE=Αγγελόπουλος Μανώλης - Πορτρέτο-Μ. Αγγελόπουλος 2
DYEAR=2014
DGENRE=Λαϊκή
TTITLE0=Αγάπες μου περαστικές [Σάκης Καπίρης-Μίμης Χριστόπουλος]
TTITLE1=Η διπρόσωπη [Αντ. Ρεπάνης-Ευτ. Παπαγιαννοπούλου]
TTITLE2=Εγώ τρελλάθηκα [Θοδ. Καμπουρίδης-Γ. Δαμιανάκης]
TTITLE3=Τσιγγάνας γάλα [Θοδ. Καμπουρίδης-Ανδ. Σπυρόπουλος]
TTITLE4=Ρίξτε στο γυαλί φαρμάκι [Απ. Καλδάρας-Ε. Παπαγιαννοπούλου]
TTITLE5=Φοβάμαι να γελάσω [Θοδ. Καμπουρίδης-Ανδ. Σπυρόπουλος]
TTITLE6=Σβήσε το δάκρυ από τα μάτια[Β.Αρχιτεκτονίδης-Ν.Μπακογιάννης]
TTITLE7=Πέντε Έλληνες στον Άδη [Γ. Παπαϊωάννου-Κ. Μάνεσης]
TTITLE8=Όταν κοιμάται ο δυστυχής [Β. Καραπατάκης-Χ. Βασιλειάδης]
TTITLE9=Μέσ' στης Πεντέλης τα βουνά [Σ. Παγιουμτζής-Ν. Βασιλάκης]
TTITLE10=Είναι ευτυχής ο άνθρωπος [Παν. Τούντας]
TTITLE11=Δώσ' μου φίλε την φωτιά σου [Νάκης Πετρίδης-Μ. Μπιζάνη]
TTITLE12=Ποιός Θεός [Μαρία Μερκούρη-Αντ. Πετρίδης]
TTITLE13=Σε θυμάμαι [Νάκης Πετρίδης-Μάρω Μπιζάνη]
TTITLE14=Η μάννα η τούρκα [Δημ. Μηλιός-Κ. Μαλκάτσης]
EXTD=
EXTT0=
EXTT1=
EXTT2=
EXTT3=
EXTT4=
EXTT5=
EXTT6=
EXTT7=
EXTT8=
EXTT9=
EXTT10=
EXTT11=
EXTT12=
EXTT13=
EXTT14=
PLAYORDER=
